<svg xmlns="http://www.w3.org/2000/svg" viewBox="0 0 600 450" preserveAspectRatio="xMidYMid slice">
<defs><linearGradient id="bg" x1="0" y1="0" x2="1" y2="1"><stop offset="0" stop-color="#e7edf3"/><stop offset="1" stop-color="#f7ecd8"/></linearGradient></defs>
<rect width="600" height="450" fill="url(#bg)"/>
<circle cx="528.0" cy="63.00000000000001" r="72.0" fill="#fff" opacity=".55"/>
<circle cx="48.0" cy="382.5" r="99.0" fill="#fff" opacity=".35"/>

<rect y="360" width="600" height="90" fill="#1c3a5c"/>
<g transform="translate(300 80)">
<path d="M0 0 V230" stroke="#1c3a5c" stroke-width="10" stroke-linecap="round"/>
<path d="M-140 40 H140" stroke="#c89b4a" stroke-width="10" stroke-linecap="round"/>
<circle cy="30" r="14" fill="#c89b4a"/>
<path d="M-140 40 L-185 130 H-95Z M140 40 L95 130 H185Z" fill="none" stroke="#1c3a5c" stroke-width="4"/>
<path d="M-195 130 H-85 a55 40 0 0 1 -110 0z M85 130 H195 a55 40 0 0 1 -110 0z" fill="#1c3a5c"/>
<rect x="-70" y="230" width="140" height="18" rx="6" fill="#1c3a5c"/>
</g>
<g transform="translate(70 265)"><rect width="120" height="90" rx="10" fill="#132c47"/><rect x="40" y="-14" width="40" height="22" rx="6" fill="none" stroke="#132c47" stroke-width="8"/><rect y="40" width="120" height="8" fill="#c89b4a"/><rect x="52" y="34" width="16" height="20" rx="3" fill="#dab868"/></g>
<g transform="translate(430 250) rotate(6)"><rect width="110" height="130" rx="8" fill="#fff" stroke="#e7edf3" stroke-width="3"/><path d="M20 30h70M20 50h70M20 70h50" stroke="#274b73" stroke-width="6" stroke-linecap="round" opacity=".6"/><circle cx="82" cy="104" r="16" fill="#c89b4a"/><path d="M74 104l6 6 11-12" stroke="#fff" stroke-width="4" fill="none" stroke-linecap="round" stroke-linejoin="round"/></g>
<g transform="translate(300 300) scale(0.0)"><path d="M0 -60 L48 -42 V4 C48 36 26 56 0 68 C-26 56 -48 36 -48 4 V-42 Z" fill="#1c3a5c"/><path d="M0 -48 L38 -34 V4 C38 30 20 46 0 56 C-20 46 -38 30 -38 4 V-34 Z" fill="none" stroke="#c89b4a" stroke-width="3"/><path d="M-14 0l9 9 19-20" fill="none" stroke="#fff" stroke-width="7" stroke-linecap="round" stroke-linejoin="round"/></g></svg>